<mxfile host="www.draw.io" modified="2019-12-26T19:45:38.792Z" agent="Mozilla/5.0 (Windows NT 6.3; WOW64) AppleWebKit/537.36 (KHTML, like Gecko) Chrome/78.0.3904.108 YaBrowser/19.12.2.252 Yowser/2.5 Safari/537.36" etag="klNWHuGg5GM3XbAw1LDV" version="12.4.3" type="github" pages="1">
  <diagram id="3Qhajqg0FPnPBoA3UYlu" name="Page-1">
    <mxGraphModel dx="2566" dy="980" grid="1" gridSize="10" guides="1" tooltips="1" connect="1" arrows="1" fold="1" page="1" pageScale="1" pageWidth="827" pageHeight="1169" math="0" shadow="0">
      <root>
        <mxCell id="0"/>
        <mxCell id="1" parent="0"/>
        <mxCell id="hzHCc3Ui3gfjM5GQ1OGF-51" value="" style="group" vertex="1" connectable="0" parent="1">
          <mxGeometry x="10" y="10" width="690" height="954" as="geometry"/>
        </mxCell>
        <mxCell id="wpHsAllXz0yTlO8Ey2fN-18" value="IDataSet&lt;T&gt;" style="swimlane;fontStyle=0;childLayout=stackLayout;horizontal=1;startSize=26;fillColor=#FFCCE6;horizontalStack=0;resizeParent=1;resizeParentMax=0;resizeLast=0;collapsible=1;marginBottom=0;" parent="hzHCc3Ui3gfjM5GQ1OGF-51" vertex="1">
          <mxGeometry x="500" width="190" height="234" as="geometry"/>
        </mxCell>
        <mxCell id="wpHsAllXz0yTlO8Ey2fN-19" value="+ getById(long): T" style="text;strokeColor=none;fillColor=none;align=left;verticalAlign=top;spacingLeft=4;spacingRight=4;overflow=hidden;rotatable=0;points=[[0,0.5],[1,0.5]];portConstraint=eastwest;" parent="wpHsAllXz0yTlO8Ey2fN-18" vertex="1">
          <mxGeometry y="26" width="190" height="26" as="geometry"/>
        </mxCell>
        <mxCell id="wpHsAllXz0yTlO8Ey2fN-20" value="+ updateById(long, T): void" style="text;strokeColor=none;fillColor=none;align=left;verticalAlign=top;spacingLeft=4;spacingRight=4;overflow=hidden;rotatable=0;points=[[0,0.5],[1,0.5]];portConstraint=eastwest;" parent="wpHsAllXz0yTlO8Ey2fN-18" vertex="1">
          <mxGeometry y="52" width="190" height="26" as="geometry"/>
        </mxCell>
        <mxCell id="wpHsAllXz0yTlO8Ey2fN-21" value="+ deleteById(long): void" style="text;strokeColor=none;fillColor=none;align=left;verticalAlign=top;spacingLeft=4;spacingRight=4;overflow=hidden;rotatable=0;points=[[0,0.5],[1,0.5]];portConstraint=eastwest;" parent="wpHsAllXz0yTlO8Ey2fN-18" vertex="1">
          <mxGeometry y="78" width="190" height="26" as="geometry"/>
        </mxCell>
        <mxCell id="wpHsAllXz0yTlO8Ey2fN-22" value="+ add(T): void" style="text;strokeColor=none;fillColor=none;align=left;verticalAlign=top;spacingLeft=4;spacingRight=4;overflow=hidden;rotatable=0;points=[[0,0.5],[1,0.5]];portConstraint=eastwest;" parent="wpHsAllXz0yTlO8Ey2fN-18" vertex="1">
          <mxGeometry y="104" width="190" height="26" as="geometry"/>
        </mxCell>
        <mxCell id="wpHsAllXz0yTlO8Ey2fN-23" value="+ isEmpty(): boolean" style="text;strokeColor=none;fillColor=none;align=left;verticalAlign=top;spacingLeft=4;spacingRight=4;overflow=hidden;rotatable=0;points=[[0,0.5],[1,0.5]];portConstraint=eastwest;" parent="wpHsAllXz0yTlO8Ey2fN-18" vertex="1">
          <mxGeometry y="130" width="190" height="26" as="geometry"/>
        </mxCell>
        <mxCell id="wpHsAllXz0yTlO8Ey2fN-24" value="+ getList(): List&lt;T&gt;" style="text;strokeColor=none;fillColor=none;align=left;verticalAlign=top;spacingLeft=4;spacingRight=4;overflow=hidden;rotatable=0;points=[[0,0.5],[1,0.5]];portConstraint=eastwest;" parent="wpHsAllXz0yTlO8Ey2fN-18" vertex="1">
          <mxGeometry y="156" width="190" height="26" as="geometry"/>
        </mxCell>
        <mxCell id="wpHsAllXz0yTlO8Ey2fN-25" value="+ save(): void" style="text;strokeColor=none;fillColor=none;align=left;verticalAlign=top;spacingLeft=4;spacingRight=4;overflow=hidden;rotatable=0;points=[[0,0.5],[1,0.5]];portConstraint=eastwest;" parent="wpHsAllXz0yTlO8Ey2fN-18" vertex="1">
          <mxGeometry y="182" width="190" height="26" as="geometry"/>
        </mxCell>
        <mxCell id="wpHsAllXz0yTlO8Ey2fN-26" value="+ load(): void" style="text;strokeColor=none;fillColor=none;align=left;verticalAlign=top;spacingLeft=4;spacingRight=4;overflow=hidden;rotatable=0;points=[[0,0.5],[1,0.5]];portConstraint=eastwest;" parent="wpHsAllXz0yTlO8Ey2fN-18" vertex="1">
          <mxGeometry y="208" width="190" height="26" as="geometry"/>
        </mxCell>
        <mxCell id="wpHsAllXz0yTlO8Ey2fN-46" value="ADataSet&lt;T&gt;" style="swimlane;fontStyle=1;align=center;verticalAlign=top;childLayout=stackLayout;horizontal=1;startSize=26;horizontalStack=0;resizeParent=1;resizeParentMax=0;resizeLast=0;collapsible=1;marginBottom=0;fillColor=#CCE5FF;" parent="hzHCc3Ui3gfjM5GQ1OGF-51" vertex="1">
          <mxGeometry x="500" y="300" width="190" height="294" as="geometry"/>
        </mxCell>
        <mxCell id="wpHsAllXz0yTlO8Ey2fN-47" value="- itemsList: List&lt;T&gt;" style="text;strokeColor=none;fillColor=none;align=left;verticalAlign=top;spacingLeft=4;spacingRight=4;overflow=hidden;rotatable=0;points=[[0,0.5],[1,0.5]];portConstraint=eastwest;" parent="wpHsAllXz0yTlO8Ey2fN-46" vertex="1">
          <mxGeometry y="26" width="190" height="26" as="geometry"/>
        </mxCell>
        <mxCell id="wpHsAllXz0yTlO8Ey2fN-48" value="" style="line;strokeWidth=1;fillColor=none;align=left;verticalAlign=middle;spacingTop=-1;spacingLeft=3;spacingRight=3;rotatable=0;labelPosition=right;points=[];portConstraint=eastwest;" parent="wpHsAllXz0yTlO8Ey2fN-46" vertex="1">
          <mxGeometry y="52" width="190" height="8" as="geometry"/>
        </mxCell>
        <mxCell id="wpHsAllXz0yTlO8Ey2fN-50" value="+ getById(long): T" style="text;strokeColor=none;fillColor=none;align=left;verticalAlign=top;spacingLeft=4;spacingRight=4;overflow=hidden;rotatable=0;points=[[0,0.5],[1,0.5]];portConstraint=eastwest;" parent="wpHsAllXz0yTlO8Ey2fN-46" vertex="1">
          <mxGeometry y="60" width="190" height="26" as="geometry"/>
        </mxCell>
        <mxCell id="wpHsAllXz0yTlO8Ey2fN-51" value="+ searchById(long): int" style="text;strokeColor=none;fillColor=none;align=left;verticalAlign=top;spacingLeft=4;spacingRight=4;overflow=hidden;rotatable=0;points=[[0,0.5],[1,0.5]];portConstraint=eastwest;" parent="wpHsAllXz0yTlO8Ey2fN-46" vertex="1">
          <mxGeometry y="86" width="190" height="26" as="geometry"/>
        </mxCell>
        <mxCell id="wpHsAllXz0yTlO8Ey2fN-52" value="+ updateById(long, T): void" style="text;strokeColor=none;fillColor=none;align=left;verticalAlign=top;spacingLeft=4;spacingRight=4;overflow=hidden;rotatable=0;points=[[0,0.5],[1,0.5]];portConstraint=eastwest;" parent="wpHsAllXz0yTlO8Ey2fN-46" vertex="1">
          <mxGeometry y="112" width="190" height="26" as="geometry"/>
        </mxCell>
        <mxCell id="wpHsAllXz0yTlO8Ey2fN-53" value="+ deleteById(long): void" style="text;strokeColor=none;fillColor=none;align=left;verticalAlign=top;spacingLeft=4;spacingRight=4;overflow=hidden;rotatable=0;points=[[0,0.5],[1,0.5]];portConstraint=eastwest;" parent="wpHsAllXz0yTlO8Ey2fN-46" vertex="1">
          <mxGeometry y="138" width="190" height="26" as="geometry"/>
        </mxCell>
        <mxCell id="wpHsAllXz0yTlO8Ey2fN-58" value="+ load(): void" style="text;strokeColor=none;fillColor=none;align=left;verticalAlign=top;spacingLeft=4;spacingRight=4;overflow=hidden;rotatable=0;points=[[0,0.5],[1,0.5]];portConstraint=eastwest;" parent="wpHsAllXz0yTlO8Ey2fN-46" vertex="1">
          <mxGeometry y="164" width="190" height="26" as="geometry"/>
        </mxCell>
        <mxCell id="wpHsAllXz0yTlO8Ey2fN-57" value="+ save(): void" style="text;strokeColor=none;fillColor=none;align=left;verticalAlign=top;spacingLeft=4;spacingRight=4;overflow=hidden;rotatable=0;points=[[0,0.5],[1,0.5]];portConstraint=eastwest;" parent="wpHsAllXz0yTlO8Ey2fN-46" vertex="1">
          <mxGeometry y="190" width="190" height="26" as="geometry"/>
        </mxCell>
        <mxCell id="wpHsAllXz0yTlO8Ey2fN-56" value="+ getList(): List&lt;T&gt;" style="text;strokeColor=none;fillColor=none;align=left;verticalAlign=top;spacingLeft=4;spacingRight=4;overflow=hidden;rotatable=0;points=[[0,0.5],[1,0.5]];portConstraint=eastwest;" parent="wpHsAllXz0yTlO8Ey2fN-46" vertex="1">
          <mxGeometry y="216" width="190" height="26" as="geometry"/>
        </mxCell>
        <mxCell id="wpHsAllXz0yTlO8Ey2fN-55" value="+ isEmpty(): boolean" style="text;strokeColor=none;fillColor=none;align=left;verticalAlign=top;spacingLeft=4;spacingRight=4;overflow=hidden;rotatable=0;points=[[0,0.5],[1,0.5]];portConstraint=eastwest;" parent="wpHsAllXz0yTlO8Ey2fN-46" vertex="1">
          <mxGeometry y="242" width="190" height="26" as="geometry"/>
        </mxCell>
        <mxCell id="wpHsAllXz0yTlO8Ey2fN-54" value="+ add(T): void" style="text;strokeColor=none;fillColor=none;align=left;verticalAlign=top;spacingLeft=4;spacingRight=4;overflow=hidden;rotatable=0;points=[[0,0.5],[1,0.5]];portConstraint=eastwest;" parent="wpHsAllXz0yTlO8Ey2fN-46" vertex="1">
          <mxGeometry y="268" width="190" height="26" as="geometry"/>
        </mxCell>
        <mxCell id="hzHCc3Ui3gfjM5GQ1OGF-43" style="edgeStyle=orthogonalEdgeStyle;rounded=0;orthogonalLoop=1;jettySize=auto;html=1;entryX=0.5;entryY=0;entryDx=0;entryDy=0;" edge="1" parent="hzHCc3Ui3gfjM5GQ1OGF-51" source="wpHsAllXz0yTlO8Ey2fN-18" target="wpHsAllXz0yTlO8Ey2fN-46">
          <mxGeometry relative="1" as="geometry"/>
        </mxCell>
        <mxCell id="hzHCc3Ui3gfjM5GQ1OGF-1" value="Alarms&lt;T extends Alarm&gt;" style="swimlane;fontStyle=1;align=center;verticalAlign=top;childLayout=stackLayout;horizontal=1;startSize=26;horizontalStack=0;resizeParent=1;resizeParentMax=0;resizeLast=0;collapsible=1;marginBottom=0;fillColor=#99FF99;" vertex="1" parent="hzHCc3Ui3gfjM5GQ1OGF-51">
          <mxGeometry x="500" y="660" width="190" height="294" as="geometry"/>
        </mxCell>
        <mxCell id="hzHCc3Ui3gfjM5GQ1OGF-2" value="- itemsList: List&lt;T&gt;" style="text;strokeColor=none;fillColor=none;align=left;verticalAlign=top;spacingLeft=4;spacingRight=4;overflow=hidden;rotatable=0;points=[[0,0.5],[1,0.5]];portConstraint=eastwest;" vertex="1" parent="hzHCc3Ui3gfjM5GQ1OGF-1">
          <mxGeometry y="26" width="190" height="26" as="geometry"/>
        </mxCell>
        <mxCell id="hzHCc3Ui3gfjM5GQ1OGF-3" value="" style="line;strokeWidth=1;fillColor=none;align=left;verticalAlign=middle;spacingTop=-1;spacingLeft=3;spacingRight=3;rotatable=0;labelPosition=right;points=[];portConstraint=eastwest;" vertex="1" parent="hzHCc3Ui3gfjM5GQ1OGF-1">
          <mxGeometry y="52" width="190" height="8" as="geometry"/>
        </mxCell>
        <mxCell id="hzHCc3Ui3gfjM5GQ1OGF-4" value="+ getById(long): T" style="text;strokeColor=none;fillColor=none;align=left;verticalAlign=top;spacingLeft=4;spacingRight=4;overflow=hidden;rotatable=0;points=[[0,0.5],[1,0.5]];portConstraint=eastwest;" vertex="1" parent="hzHCc3Ui3gfjM5GQ1OGF-1">
          <mxGeometry y="60" width="190" height="26" as="geometry"/>
        </mxCell>
        <mxCell id="hzHCc3Ui3gfjM5GQ1OGF-5" value="+ searchById(long): int" style="text;strokeColor=none;fillColor=none;align=left;verticalAlign=top;spacingLeft=4;spacingRight=4;overflow=hidden;rotatable=0;points=[[0,0.5],[1,0.5]];portConstraint=eastwest;" vertex="1" parent="hzHCc3Ui3gfjM5GQ1OGF-1">
          <mxGeometry y="86" width="190" height="26" as="geometry"/>
        </mxCell>
        <mxCell id="hzHCc3Ui3gfjM5GQ1OGF-6" value="+ updateById(long, T): void" style="text;strokeColor=none;fillColor=none;align=left;verticalAlign=top;spacingLeft=4;spacingRight=4;overflow=hidden;rotatable=0;points=[[0,0.5],[1,0.5]];portConstraint=eastwest;" vertex="1" parent="hzHCc3Ui3gfjM5GQ1OGF-1">
          <mxGeometry y="112" width="190" height="26" as="geometry"/>
        </mxCell>
        <mxCell id="hzHCc3Ui3gfjM5GQ1OGF-7" value="+ deleteById(long): void" style="text;strokeColor=none;fillColor=none;align=left;verticalAlign=top;spacingLeft=4;spacingRight=4;overflow=hidden;rotatable=0;points=[[0,0.5],[1,0.5]];portConstraint=eastwest;" vertex="1" parent="hzHCc3Ui3gfjM5GQ1OGF-1">
          <mxGeometry y="138" width="190" height="26" as="geometry"/>
        </mxCell>
        <mxCell id="hzHCc3Ui3gfjM5GQ1OGF-8" value="+ load(): void" style="text;strokeColor=none;fillColor=none;align=left;verticalAlign=top;spacingLeft=4;spacingRight=4;overflow=hidden;rotatable=0;points=[[0,0.5],[1,0.5]];portConstraint=eastwest;" vertex="1" parent="hzHCc3Ui3gfjM5GQ1OGF-1">
          <mxGeometry y="164" width="190" height="26" as="geometry"/>
        </mxCell>
        <mxCell id="hzHCc3Ui3gfjM5GQ1OGF-9" value="+ save(): void" style="text;strokeColor=none;fillColor=none;align=left;verticalAlign=top;spacingLeft=4;spacingRight=4;overflow=hidden;rotatable=0;points=[[0,0.5],[1,0.5]];portConstraint=eastwest;" vertex="1" parent="hzHCc3Ui3gfjM5GQ1OGF-1">
          <mxGeometry y="190" width="190" height="26" as="geometry"/>
        </mxCell>
        <mxCell id="hzHCc3Ui3gfjM5GQ1OGF-10" value="+ getList(): List&lt;T&gt;" style="text;strokeColor=none;fillColor=none;align=left;verticalAlign=top;spacingLeft=4;spacingRight=4;overflow=hidden;rotatable=0;points=[[0,0.5],[1,0.5]];portConstraint=eastwest;" vertex="1" parent="hzHCc3Ui3gfjM5GQ1OGF-1">
          <mxGeometry y="216" width="190" height="26" as="geometry"/>
        </mxCell>
        <mxCell id="hzHCc3Ui3gfjM5GQ1OGF-11" value="+ isEmpty(): boolean" style="text;strokeColor=none;fillColor=none;align=left;verticalAlign=top;spacingLeft=4;spacingRight=4;overflow=hidden;rotatable=0;points=[[0,0.5],[1,0.5]];portConstraint=eastwest;" vertex="1" parent="hzHCc3Ui3gfjM5GQ1OGF-1">
          <mxGeometry y="242" width="190" height="26" as="geometry"/>
        </mxCell>
        <mxCell id="hzHCc3Ui3gfjM5GQ1OGF-12" value="+ add(T): void" style="text;strokeColor=none;fillColor=none;align=left;verticalAlign=top;spacingLeft=4;spacingRight=4;overflow=hidden;rotatable=0;points=[[0,0.5],[1,0.5]];portConstraint=eastwest;" vertex="1" parent="hzHCc3Ui3gfjM5GQ1OGF-1">
          <mxGeometry y="268" width="190" height="26" as="geometry"/>
        </mxCell>
        <mxCell id="hzHCc3Ui3gfjM5GQ1OGF-45" style="edgeStyle=orthogonalEdgeStyle;rounded=0;orthogonalLoop=1;jettySize=auto;html=1;" edge="1" parent="hzHCc3Ui3gfjM5GQ1OGF-51" source="wpHsAllXz0yTlO8Ey2fN-46" target="hzHCc3Ui3gfjM5GQ1OGF-1">
          <mxGeometry relative="1" as="geometry"/>
        </mxCell>
        <mxCell id="hzHCc3Ui3gfjM5GQ1OGF-22" value="Cards&lt;T extends Card&gt;" style="swimlane;fontStyle=1;align=center;verticalAlign=top;childLayout=stackLayout;horizontal=1;startSize=26;horizontalStack=0;resizeParent=1;resizeParentMax=0;resizeLast=0;collapsible=1;marginBottom=0;fillColor=#99FF99;" vertex="1" parent="hzHCc3Ui3gfjM5GQ1OGF-51">
          <mxGeometry x="120" y="634" width="190" height="320" as="geometry"/>
        </mxCell>
        <mxCell id="hzHCc3Ui3gfjM5GQ1OGF-23" value="- itemsList: List&lt;T&gt;" style="text;strokeColor=none;fillColor=none;align=left;verticalAlign=top;spacingLeft=4;spacingRight=4;overflow=hidden;rotatable=0;points=[[0,0.5],[1,0.5]];portConstraint=eastwest;" vertex="1" parent="hzHCc3Ui3gfjM5GQ1OGF-22">
          <mxGeometry y="26" width="190" height="26" as="geometry"/>
        </mxCell>
        <mxCell id="hzHCc3Ui3gfjM5GQ1OGF-34" value="- file: File" style="text;strokeColor=none;fillColor=none;align=left;verticalAlign=top;spacingLeft=4;spacingRight=4;overflow=hidden;rotatable=0;points=[[0,0.5],[1,0.5]];portConstraint=eastwest;" vertex="1" parent="hzHCc3Ui3gfjM5GQ1OGF-22">
          <mxGeometry y="52" width="190" height="26" as="geometry"/>
        </mxCell>
        <mxCell id="hzHCc3Ui3gfjM5GQ1OGF-24" value="" style="line;strokeWidth=1;fillColor=none;align=left;verticalAlign=middle;spacingTop=-1;spacingLeft=3;spacingRight=3;rotatable=0;labelPosition=right;points=[];portConstraint=eastwest;" vertex="1" parent="hzHCc3Ui3gfjM5GQ1OGF-22">
          <mxGeometry y="78" width="190" height="8" as="geometry"/>
        </mxCell>
        <mxCell id="hzHCc3Ui3gfjM5GQ1OGF-25" value="+ getById(long): T" style="text;strokeColor=none;fillColor=none;align=left;verticalAlign=top;spacingLeft=4;spacingRight=4;overflow=hidden;rotatable=0;points=[[0,0.5],[1,0.5]];portConstraint=eastwest;" vertex="1" parent="hzHCc3Ui3gfjM5GQ1OGF-22">
          <mxGeometry y="86" width="190" height="26" as="geometry"/>
        </mxCell>
        <mxCell id="hzHCc3Ui3gfjM5GQ1OGF-26" value="+ searchById(long): int" style="text;strokeColor=none;fillColor=none;align=left;verticalAlign=top;spacingLeft=4;spacingRight=4;overflow=hidden;rotatable=0;points=[[0,0.5],[1,0.5]];portConstraint=eastwest;" vertex="1" parent="hzHCc3Ui3gfjM5GQ1OGF-22">
          <mxGeometry y="112" width="190" height="26" as="geometry"/>
        </mxCell>
        <mxCell id="hzHCc3Ui3gfjM5GQ1OGF-27" value="+ updateById(long, T): void" style="text;strokeColor=none;fillColor=none;align=left;verticalAlign=top;spacingLeft=4;spacingRight=4;overflow=hidden;rotatable=0;points=[[0,0.5],[1,0.5]];portConstraint=eastwest;" vertex="1" parent="hzHCc3Ui3gfjM5GQ1OGF-22">
          <mxGeometry y="138" width="190" height="26" as="geometry"/>
        </mxCell>
        <mxCell id="hzHCc3Ui3gfjM5GQ1OGF-28" value="+ deleteById(long): void" style="text;strokeColor=none;fillColor=none;align=left;verticalAlign=top;spacingLeft=4;spacingRight=4;overflow=hidden;rotatable=0;points=[[0,0.5],[1,0.5]];portConstraint=eastwest;" vertex="1" parent="hzHCc3Ui3gfjM5GQ1OGF-22">
          <mxGeometry y="164" width="190" height="26" as="geometry"/>
        </mxCell>
        <mxCell id="hzHCc3Ui3gfjM5GQ1OGF-29" value="+ load(): void" style="text;strokeColor=none;fillColor=none;align=left;verticalAlign=top;spacingLeft=4;spacingRight=4;overflow=hidden;rotatable=0;points=[[0,0.5],[1,0.5]];portConstraint=eastwest;" vertex="1" parent="hzHCc3Ui3gfjM5GQ1OGF-22">
          <mxGeometry y="190" width="190" height="26" as="geometry"/>
        </mxCell>
        <mxCell id="hzHCc3Ui3gfjM5GQ1OGF-30" value="+ save(): void" style="text;strokeColor=none;fillColor=none;align=left;verticalAlign=top;spacingLeft=4;spacingRight=4;overflow=hidden;rotatable=0;points=[[0,0.5],[1,0.5]];portConstraint=eastwest;" vertex="1" parent="hzHCc3Ui3gfjM5GQ1OGF-22">
          <mxGeometry y="216" width="190" height="26" as="geometry"/>
        </mxCell>
        <mxCell id="hzHCc3Ui3gfjM5GQ1OGF-31" value="+ getList(): List&lt;T&gt;" style="text;strokeColor=none;fillColor=none;align=left;verticalAlign=top;spacingLeft=4;spacingRight=4;overflow=hidden;rotatable=0;points=[[0,0.5],[1,0.5]];portConstraint=eastwest;" vertex="1" parent="hzHCc3Ui3gfjM5GQ1OGF-22">
          <mxGeometry y="242" width="190" height="26" as="geometry"/>
        </mxCell>
        <mxCell id="hzHCc3Ui3gfjM5GQ1OGF-32" value="+ isEmpty(): boolean" style="text;strokeColor=none;fillColor=none;align=left;verticalAlign=top;spacingLeft=4;spacingRight=4;overflow=hidden;rotatable=0;points=[[0,0.5],[1,0.5]];portConstraint=eastwest;" vertex="1" parent="hzHCc3Ui3gfjM5GQ1OGF-22">
          <mxGeometry y="268" width="190" height="26" as="geometry"/>
        </mxCell>
        <mxCell id="hzHCc3Ui3gfjM5GQ1OGF-33" value="+ add(T): void" style="text;strokeColor=none;fillColor=none;align=left;verticalAlign=top;spacingLeft=4;spacingRight=4;overflow=hidden;rotatable=0;points=[[0,0.5],[1,0.5]];portConstraint=eastwest;" vertex="1" parent="hzHCc3Ui3gfjM5GQ1OGF-22">
          <mxGeometry y="294" width="190" height="26" as="geometry"/>
        </mxCell>
        <mxCell id="hzHCc3Ui3gfjM5GQ1OGF-44" style="edgeStyle=orthogonalEdgeStyle;rounded=0;orthogonalLoop=1;jettySize=auto;html=1;" edge="1" parent="hzHCc3Ui3gfjM5GQ1OGF-51" source="wpHsAllXz0yTlO8Ey2fN-46" target="hzHCc3Ui3gfjM5GQ1OGF-22">
          <mxGeometry relative="1" as="geometry">
            <Array as="points">
              <mxPoint x="595" y="610"/>
              <mxPoint x="215" y="610"/>
            </Array>
          </mxGeometry>
        </mxCell>
        <mxCell id="wpHsAllXz0yTlO8Ey2fN-1" value="IAlarm" style="swimlane;fontStyle=0;childLayout=stackLayout;horizontal=1;startSize=26;fillColor=#FFCCE6;horizontalStack=0;resizeParent=1;resizeParentMax=0;resizeLast=0;collapsible=1;marginBottom=0;" parent="hzHCc3Ui3gfjM5GQ1OGF-51" vertex="1">
          <mxGeometry x="320" width="140" height="52" as="geometry"/>
        </mxCell>
        <mxCell id="wpHsAllXz0yTlO8Ey2fN-5" value="ICard" style="swimlane;fontStyle=0;childLayout=stackLayout;horizontal=1;startSize=26;fillColor=#FFCCE6;horizontalStack=0;resizeParent=1;resizeParentMax=0;resizeLast=0;collapsible=1;marginBottom=0;" parent="hzHCc3Ui3gfjM5GQ1OGF-51" vertex="1">
          <mxGeometry width="140" height="52" as="geometry"/>
        </mxCell>
        <mxCell id="wpHsAllXz0yTlO8Ey2fN-10" value="IUniqueItem" style="swimlane;fontStyle=0;childLayout=stackLayout;horizontal=1;startSize=26;fillColor=#FFCCE6;horizontalStack=0;resizeParent=1;resizeParentMax=0;resizeLast=0;collapsible=1;marginBottom=0;" parent="hzHCc3Ui3gfjM5GQ1OGF-51" vertex="1">
          <mxGeometry x="160" width="140" height="80" as="geometry"/>
        </mxCell>
        <mxCell id="wpHsAllXz0yTlO8Ey2fN-11" value="+ getId(): long" style="text;strokeColor=none;fillColor=none;align=left;verticalAlign=top;spacingLeft=4;spacingRight=4;overflow=hidden;rotatable=0;points=[[0,0.5],[1,0.5]];portConstraint=eastwest;" parent="wpHsAllXz0yTlO8Ey2fN-10" vertex="1">
          <mxGeometry y="26" width="140" height="26" as="geometry"/>
        </mxCell>
        <mxCell id="wpHsAllXz0yTlO8Ey2fN-12" value="+ setId(long): void" style="text;strokeColor=none;fillColor=none;align=left;verticalAlign=top;spacingLeft=4;spacingRight=4;overflow=hidden;rotatable=0;points=[[0,0.5],[1,0.5]];portConstraint=eastwest;" parent="wpHsAllXz0yTlO8Ey2fN-10" vertex="1">
          <mxGeometry y="52" width="140" height="28" as="geometry"/>
        </mxCell>
        <mxCell id="wpHsAllXz0yTlO8Ey2fN-38" value="Alarm" style="swimlane;fontStyle=1;align=center;verticalAlign=top;childLayout=stackLayout;horizontal=1;startSize=26;horizontalStack=0;resizeParent=1;resizeParentMax=0;resizeLast=0;collapsible=1;marginBottom=0;fillColor=#CCFFCC;" parent="hzHCc3Ui3gfjM5GQ1OGF-51" vertex="1">
          <mxGeometry x="260" y="150" width="200" height="268" as="geometry"/>
        </mxCell>
        <mxCell id="wpHsAllXz0yTlO8Ey2fN-39" value="- caption: String" style="text;strokeColor=none;fillColor=none;align=left;verticalAlign=top;spacingLeft=4;spacingRight=4;overflow=hidden;rotatable=0;points=[[0,0.5],[1,0.5]];portConstraint=eastwest;" parent="wpHsAllXz0yTlO8Ey2fN-38" vertex="1">
          <mxGeometry y="26" width="200" height="26" as="geometry"/>
        </mxCell>
        <mxCell id="wpHsAllXz0yTlO8Ey2fN-59" value="- nextAlarm, interval: long" style="text;strokeColor=none;fillColor=none;align=left;verticalAlign=top;spacingLeft=4;spacingRight=4;overflow=hidden;rotatable=0;points=[[0,0.5],[1,0.5]];portConstraint=eastwest;" parent="wpHsAllXz0yTlO8Ey2fN-38" vertex="1">
          <mxGeometry y="52" width="200" height="26" as="geometry"/>
        </mxCell>
        <mxCell id="wpHsAllXz0yTlO8Ey2fN-60" value="- id: long" style="text;strokeColor=none;fillColor=none;align=left;verticalAlign=top;spacingLeft=4;spacingRight=4;overflow=hidden;rotatable=0;points=[[0,0.5],[1,0.5]];portConstraint=eastwest;" parent="wpHsAllXz0yTlO8Ey2fN-38" vertex="1">
          <mxGeometry y="78" width="200" height="26" as="geometry"/>
        </mxCell>
        <mxCell id="wpHsAllXz0yTlO8Ey2fN-40" value="" style="line;strokeWidth=1;fillColor=none;align=left;verticalAlign=middle;spacingTop=-1;spacingLeft=3;spacingRight=3;rotatable=0;labelPosition=right;points=[];portConstraint=eastwest;" parent="wpHsAllXz0yTlO8Ey2fN-38" vertex="1">
          <mxGeometry y="104" width="200" height="8" as="geometry"/>
        </mxCell>
        <mxCell id="wpHsAllXz0yTlO8Ey2fN-41" value="+ getDateTime(): String" style="text;strokeColor=none;fillColor=none;align=left;verticalAlign=top;spacingLeft=4;spacingRight=4;overflow=hidden;rotatable=0;points=[[0,0.5],[1,0.5]];portConstraint=eastwest;" parent="wpHsAllXz0yTlO8Ey2fN-38" vertex="1">
          <mxGeometry y="112" width="200" height="26" as="geometry"/>
        </mxCell>
        <mxCell id="wpHsAllXz0yTlO8Ey2fN-61" value="+ getCaption(): String" style="text;strokeColor=none;fillColor=none;align=left;verticalAlign=top;spacingLeft=4;spacingRight=4;overflow=hidden;rotatable=0;points=[[0,0.5],[1,0.5]];portConstraint=eastwest;" parent="wpHsAllXz0yTlO8Ey2fN-38" vertex="1">
          <mxGeometry y="138" width="200" height="26" as="geometry"/>
        </mxCell>
        <mxCell id="wpHsAllXz0yTlO8Ey2fN-63" value="+ getNextAlarm(): long" style="text;strokeColor=none;fillColor=none;align=left;verticalAlign=top;spacingLeft=4;spacingRight=4;overflow=hidden;rotatable=0;points=[[0,0.5],[1,0.5]];portConstraint=eastwest;" parent="wpHsAllXz0yTlO8Ey2fN-38" vertex="1">
          <mxGeometry y="164" width="200" height="26" as="geometry"/>
        </mxCell>
        <mxCell id="wpHsAllXz0yTlO8Ey2fN-62" value="+ getId(): long" style="text;strokeColor=none;fillColor=none;align=left;verticalAlign=top;spacingLeft=4;spacingRight=4;overflow=hidden;rotatable=0;points=[[0,0.5],[1,0.5]];portConstraint=eastwest;" parent="wpHsAllXz0yTlO8Ey2fN-38" vertex="1">
          <mxGeometry y="190" width="200" height="26" as="geometry"/>
        </mxCell>
        <mxCell id="wpHsAllXz0yTlO8Ey2fN-64" value="+ setId(long): void" style="text;strokeColor=none;fillColor=none;align=left;verticalAlign=top;spacingLeft=4;spacingRight=4;overflow=hidden;rotatable=0;points=[[0,0.5],[1,0.5]];portConstraint=eastwest;" parent="wpHsAllXz0yTlO8Ey2fN-38" vertex="1">
          <mxGeometry y="216" width="200" height="26" as="geometry"/>
        </mxCell>
        <mxCell id="wpHsAllXz0yTlO8Ey2fN-65" value="+ startAlarm(Context): void" style="text;strokeColor=none;fillColor=none;align=left;verticalAlign=top;spacingLeft=4;spacingRight=4;overflow=hidden;rotatable=0;points=[[0,0.5],[1,0.5]];portConstraint=eastwest;" parent="wpHsAllXz0yTlO8Ey2fN-38" vertex="1">
          <mxGeometry y="242" width="200" height="26" as="geometry"/>
        </mxCell>
        <mxCell id="hzHCc3Ui3gfjM5GQ1OGF-40" style="edgeStyle=orthogonalEdgeStyle;rounded=0;orthogonalLoop=1;jettySize=auto;html=1;exitX=0.5;exitY=1;exitDx=0;exitDy=0;entryX=0.5;entryY=0;entryDx=0;entryDy=0;" edge="1" parent="hzHCc3Ui3gfjM5GQ1OGF-51" source="wpHsAllXz0yTlO8Ey2fN-1" target="wpHsAllXz0yTlO8Ey2fN-38">
          <mxGeometry relative="1" as="geometry">
            <Array as="points">
              <mxPoint x="390" y="115"/>
              <mxPoint x="360" y="115"/>
            </Array>
          </mxGeometry>
        </mxCell>
        <mxCell id="hzHCc3Ui3gfjM5GQ1OGF-49" style="edgeStyle=orthogonalEdgeStyle;rounded=0;orthogonalLoop=1;jettySize=auto;html=1;entryX=0;entryY=0.5;entryDx=0;entryDy=0;strokeColor=#808080;" edge="1" parent="hzHCc3Ui3gfjM5GQ1OGF-51" source="wpHsAllXz0yTlO8Ey2fN-38" target="hzHCc3Ui3gfjM5GQ1OGF-2">
          <mxGeometry relative="1" as="geometry">
            <Array as="points">
              <mxPoint x="360" y="699"/>
            </Array>
          </mxGeometry>
        </mxCell>
        <mxCell id="hzHCc3Ui3gfjM5GQ1OGF-41" style="edgeStyle=orthogonalEdgeStyle;rounded=0;orthogonalLoop=1;jettySize=auto;html=1;entryX=0.5;entryY=0;entryDx=0;entryDy=0;" edge="1" parent="hzHCc3Ui3gfjM5GQ1OGF-51" source="wpHsAllXz0yTlO8Ey2fN-10" target="wpHsAllXz0yTlO8Ey2fN-38">
          <mxGeometry relative="1" as="geometry"/>
        </mxCell>
        <mxCell id="wpHsAllXz0yTlO8Ey2fN-42" value="Card" style="swimlane;fontStyle=1;align=center;verticalAlign=top;childLayout=stackLayout;horizontal=1;startSize=26;horizontalStack=0;resizeParent=1;resizeParentMax=0;resizeLast=0;collapsible=1;marginBottom=0;fillColor=#CCFFCC;" parent="hzHCc3Ui3gfjM5GQ1OGF-51" vertex="1">
          <mxGeometry y="150" width="200" height="320" as="geometry"/>
        </mxCell>
        <mxCell id="wpHsAllXz0yTlO8Ey2fN-43" value="+ caption, description: String" style="text;strokeColor=none;fillColor=none;align=left;verticalAlign=top;spacingLeft=4;spacingRight=4;overflow=hidden;rotatable=0;points=[[0,0.5],[1,0.5]];portConstraint=eastwest;" parent="wpHsAllXz0yTlO8Ey2fN-42" vertex="1">
          <mxGeometry y="26" width="200" height="26" as="geometry"/>
        </mxCell>
        <mxCell id="wpHsAllXz0yTlO8Ey2fN-69" value="+ alarms: Alarms&lt;Alarm&gt;" style="text;strokeColor=none;fillColor=none;align=left;verticalAlign=top;spacingLeft=4;spacingRight=4;overflow=hidden;rotatable=0;points=[[0,0.5],[1,0.5]];portConstraint=eastwest;" parent="wpHsAllXz0yTlO8Ey2fN-42" vertex="1">
          <mxGeometry y="52" width="200" height="26" as="geometry"/>
        </mxCell>
        <mxCell id="wpHsAllXz0yTlO8Ey2fN-70" value="+ id: long" style="text;strokeColor=none;fillColor=none;align=left;verticalAlign=top;spacingLeft=4;spacingRight=4;overflow=hidden;rotatable=0;points=[[0,0.5],[1,0.5]];portConstraint=eastwest;" parent="wpHsAllXz0yTlO8Ey2fN-42" vertex="1">
          <mxGeometry y="78" width="200" height="26" as="geometry"/>
        </mxCell>
        <mxCell id="wpHsAllXz0yTlO8Ey2fN-44" value="" style="line;strokeWidth=1;fillColor=none;align=left;verticalAlign=middle;spacingTop=-1;spacingLeft=3;spacingRight=3;rotatable=0;labelPosition=right;points=[];portConstraint=eastwest;" parent="wpHsAllXz0yTlO8Ey2fN-42" vertex="1">
          <mxGeometry y="104" width="200" height="8" as="geometry"/>
        </mxCell>
        <mxCell id="wpHsAllXz0yTlO8Ey2fN-45" value="+ getCaption(): String" style="text;strokeColor=none;fillColor=none;align=left;verticalAlign=top;spacingLeft=4;spacingRight=4;overflow=hidden;rotatable=0;points=[[0,0.5],[1,0.5]];portConstraint=eastwest;" parent="wpHsAllXz0yTlO8Ey2fN-42" vertex="1">
          <mxGeometry y="112" width="200" height="26" as="geometry"/>
        </mxCell>
        <mxCell id="wpHsAllXz0yTlO8Ey2fN-71" value="+ getDescription(): String" style="text;strokeColor=none;fillColor=none;align=left;verticalAlign=top;spacingLeft=4;spacingRight=4;overflow=hidden;rotatable=0;points=[[0,0.5],[1,0.5]];portConstraint=eastwest;" parent="wpHsAllXz0yTlO8Ey2fN-42" vertex="1">
          <mxGeometry y="138" width="200" height="26" as="geometry"/>
        </mxCell>
        <mxCell id="wpHsAllXz0yTlO8Ey2fN-72" value="+ getAlarms(): Alarms&lt;Alarm&gt;" style="text;strokeColor=none;fillColor=none;align=left;verticalAlign=top;spacingLeft=4;spacingRight=4;overflow=hidden;rotatable=0;points=[[0,0.5],[1,0.5]];portConstraint=eastwest;" parent="wpHsAllXz0yTlO8Ey2fN-42" vertex="1">
          <mxGeometry y="164" width="200" height="26" as="geometry"/>
        </mxCell>
        <mxCell id="wpHsAllXz0yTlO8Ey2fN-73" value="+ getId(): long" style="text;strokeColor=none;fillColor=none;align=left;verticalAlign=top;spacingLeft=4;spacingRight=4;overflow=hidden;rotatable=0;points=[[0,0.5],[1,0.5]];portConstraint=eastwest;" parent="wpHsAllXz0yTlO8Ey2fN-42" vertex="1">
          <mxGeometry y="190" width="200" height="26" as="geometry"/>
        </mxCell>
        <mxCell id="wpHsAllXz0yTlO8Ey2fN-74" value="+ setid(long): void" style="text;strokeColor=none;fillColor=none;align=left;verticalAlign=top;spacingLeft=4;spacingRight=4;overflow=hidden;rotatable=0;points=[[0,0.5],[1,0.5]];portConstraint=eastwest;" parent="wpHsAllXz0yTlO8Ey2fN-42" vertex="1">
          <mxGeometry y="216" width="200" height="26" as="geometry"/>
        </mxCell>
        <mxCell id="wpHsAllXz0yTlO8Ey2fN-75" value="+ setCaption(String): void" style="text;strokeColor=none;fillColor=none;align=left;verticalAlign=top;spacingLeft=4;spacingRight=4;overflow=hidden;rotatable=0;points=[[0,0.5],[1,0.5]];portConstraint=eastwest;" parent="wpHsAllXz0yTlO8Ey2fN-42" vertex="1">
          <mxGeometry y="242" width="200" height="26" as="geometry"/>
        </mxCell>
        <mxCell id="wpHsAllXz0yTlO8Ey2fN-76" value="+ setDescription): void" style="text;strokeColor=none;fillColor=none;align=left;verticalAlign=top;spacingLeft=4;spacingRight=4;overflow=hidden;rotatable=0;points=[[0,0.5],[1,0.5]];portConstraint=eastwest;" parent="wpHsAllXz0yTlO8Ey2fN-42" vertex="1">
          <mxGeometry y="268" width="200" height="26" as="geometry"/>
        </mxCell>
        <mxCell id="wpHsAllXz0yTlO8Ey2fN-77" value="+ setAlarms(Alarms&lt;Alarm&gt;): void" style="text;strokeColor=none;fillColor=none;align=left;verticalAlign=top;spacingLeft=4;spacingRight=4;overflow=hidden;rotatable=0;points=[[0,0.5],[1,0.5]];portConstraint=eastwest;" parent="wpHsAllXz0yTlO8Ey2fN-42" vertex="1">
          <mxGeometry y="294" width="200" height="26" as="geometry"/>
        </mxCell>
        <mxCell id="hzHCc3Ui3gfjM5GQ1OGF-39" style="edgeStyle=orthogonalEdgeStyle;rounded=0;orthogonalLoop=1;jettySize=auto;html=1;exitX=0.5;exitY=1;exitDx=0;exitDy=0;entryX=0.5;entryY=0;entryDx=0;entryDy=0;" edge="1" parent="hzHCc3Ui3gfjM5GQ1OGF-51" source="wpHsAllXz0yTlO8Ey2fN-5" target="wpHsAllXz0yTlO8Ey2fN-42">
          <mxGeometry relative="1" as="geometry">
            <Array as="points">
              <mxPoint x="70" y="115"/>
              <mxPoint x="100" y="115"/>
            </Array>
          </mxGeometry>
        </mxCell>
        <mxCell id="hzHCc3Ui3gfjM5GQ1OGF-42" style="edgeStyle=orthogonalEdgeStyle;rounded=0;orthogonalLoop=1;jettySize=auto;html=1;entryX=0.5;entryY=0;entryDx=0;entryDy=0;" edge="1" parent="hzHCc3Ui3gfjM5GQ1OGF-51" source="wpHsAllXz0yTlO8Ey2fN-10" target="wpHsAllXz0yTlO8Ey2fN-42">
          <mxGeometry relative="1" as="geometry"/>
        </mxCell>
        <mxCell id="hzHCc3Ui3gfjM5GQ1OGF-48" style="edgeStyle=orthogonalEdgeStyle;rounded=0;orthogonalLoop=1;jettySize=auto;html=1;entryX=0;entryY=0.5;entryDx=0;entryDy=0;strokeColor=#808080;" edge="1" parent="hzHCc3Ui3gfjM5GQ1OGF-51" source="wpHsAllXz0yTlO8Ey2fN-42" target="hzHCc3Ui3gfjM5GQ1OGF-23">
          <mxGeometry relative="1" as="geometry"/>
        </mxCell>
      </root>
    </mxGraphModel>
  </diagram>
</mxfile>
